<?xml version="1.0" encoding="UTF-8" standalone="no"?>
<!-- Created with Inkscape (http://www.inkscape.org/) -->

<svg
   width="354.03687"
   height="153.22075"
   viewBox="0 0 354.03687 153.22074"
   version="1.1"
   id="SVGRoot"
   sodipodi:docname="BEMTELECOM_LOGO.svg"
   xml:space="preserve"
   inkscape:version="1.3.2 (091e20ef0f, 2023-11-25)"
   xmlns:inkscape="http://www.inkscape.org/namespaces/inkscape"
   xmlns:sodipodi="http://sodipodi.sourceforge.net/DTD/sodipodi-0.dtd"
   xmlns="http://www.w3.org/2000/svg"
   xmlns:svg="http://www.w3.org/2000/svg"><sodipodi:namedview
     id="namedview1467"
     pagecolor="#ffffff"
     bordercolor="#000000"
     borderopacity="0.25"
     inkscape:showpageshadow="2"
     inkscape:pageopacity="0.0"
     inkscape:pagecheckerboard="0"
     inkscape:deskcolor="#d1d1d1"
     inkscape:document-units="px"
     showgrid="true"
     inkscape:zoom="0.47431873"
     inkscape:cx="-203.4497"
     inkscape:cy="224.53256"
     inkscape:window-width="1920"
     inkscape:window-height="1011"
     inkscape:window-x="0"
     inkscape:window-y="0"
     inkscape:window-maximized="1"
     inkscape:current-layer="layer1"><inkscape:grid
       type="xygrid"
       id="grid1953"
       originx="-846.24334"
       originy="240.65039"
       spacingy="1"
       spacingx="1"
       units="px"
       visible="true" /></sodipodi:namedview><defs
     id="defs1462"><clipPath
       id="clip-0"><path
         clip-rule="nonzero"
         d="M 0,0 H 204 V 133.62891 H 0 Z m 0,0"
         id="path1-3" /></clipPath><clipPath
       id="clip-1"><path
         clip-rule="nonzero"
         d="M 252,0 H 360 V 133.62891 H 252 Z m 0,0"
         id="path2" /></clipPath><clipPath
       id="clip-2"><path
         clip-rule="nonzero"
         d="m 178,0 h 64 v 133.62891 h -64 z m 0,0"
         id="path3" /></clipPath></defs><g
     inkscape:label="Camada 1"
     inkscape:groupmode="layer"
     id="layer1"
     transform="translate(-846.24336,240.65035)"><path
       style="fill:#f02857;fill-opacity:1"
       d="m 859.34067,-89.023171 c -0.4297,-2.731661 -13.21929,-120.202559 -13.09643,-120.289249 0.061,-0.0431 12.80216,-1.45058 28.31365,-3.12783 27.08589,-2.92878 28.39795,-3.02772 33.13316,-2.49858 9.30498,1.03981 16.25366,4.08792 21.75758,9.54418 l 2.96706,2.94137 3.51981,-3.54347 c 8.68279,-8.74113 20.09252,-14.59864 32.71237,-16.79384 6.46344,-1.1243 18.67777,-0.70173 24.5873,0.85063 l 4.32,1.13482 5.35743,-2.54765 c 3.0803,-1.46479 7.7727,-3.19072 11.04,-4.06061 5.485,-1.46036 6.0164,-1.51256 15.2826,-1.50129 8.8031,0.0107 9.9854,0.11516 14.2446,1.25856 l 4.6446,1.24689 3.1639,-1.68005 c 12.7577,-6.77436 29.4783,-8.68389 43.5475,-4.97324 l 3.5194,0.92823 4.32,-2.12051 c 17.7698,-8.72243 37.9771,-8.51445 55.57,0.57194 16.4045,8.47258 28.4768,24.77462 31.7447,42.86686 0.8371,4.63444 7.6438,64.80153 7.3627,65.08254 -0.3074,0.30747 -26.7505,3.24438 -26.9965,2.99838 -0.1264,-0.12641 -1.847,-14.57833 -3.8236,-32.11538 -4.0089,-35.56944 -4.1673,-36.37816 -8.3834,-42.81556 -4.187,-6.39277 -10.6554,-11.41509 -17.7555,-13.78611 -3.7007,-1.23579 -10.8851,-2.15548 -12.3998,-1.58731 -1.0701,0.40142 -1.0612,0.43243 0.8536,2.98075 2.4229,3.22469 4.9896,7.7933 7.0191,12.49381 3.2078,7.42948 3.7896,10.85419 7.6557,45.05939 2.0086,17.77078 3.5727,32.3898 3.4758,32.48671 -0.2439,0.24383 -26.8721,3.21346 -27.067,3.01856 -0.087,-0.0865 -1.7873,-14.56779 -3.7795,-32.18053 -2.681,-23.70315 -3.884,-32.80416 -4.6302,-35.0292 -3.5811,-10.67783 -11.7422,-18.5653 -22.671,-21.91075 -3.0841,-0.9441 -12.3351,-1.96109 -12.3351,-1.35604 0,0.15453 1.3797,2.31587 3.0659,4.80298 4.9873,7.35583 8.5697,16.12221 9.8478,24.09776 0.5069,3.16324 7.2463,62.47667 7.2463,63.7748 0,0.4351 -3.7845,1.03446 -13.5144,2.14033 -7.4331,0.84479 -13.5728,1.47782 -13.6439,1.40672 -0.071,-0.0711 -1.6612,-13.8436 -3.5336,-30.60556 -1.8725,-16.76196 -3.7324,-32.01026 -4.1332,-33.88511 -3.0925,-14.46497 -15.9001,-25.1054 -31.2659,-25.97557 l -5.0232,-0.28446 2.3647,3.12423 c 4.8586,6.41907 8.9067,15.31858 10.5091,23.10314 0.6664,3.23758 0.732,4.28817 0.2847,4.56456 -0.3195,0.19746 -19.108,7.56642 -41.75256,16.37546 -22.64447,8.80903 -41.27976,16.11143 -41.41176,16.22755 -0.132,0.11613 0.732,1.06274 1.92,2.10358 2.92795,2.56528 10.0606,6.03719 14.16,6.89257 10.962,2.28732 22.51124,-0.98131 30.15312,-8.53383 1.9302,-1.90763 4.0437,-4.19929 4.6966,-5.09259 l 1.1872,-1.62417 13.6616,2.05349 c 7.5138,1.12943 13.8568,2.22855 14.0957,2.44251 0.694,0.62153 -4.1811,9.85742 -7.599,14.39661 -19.6995,26.161478 -56.09447,32.365588 -83.3632,14.21059 l -1.24798,-0.83088 -1.99662,3.08732 c -3.11835,4.82185 -8.0624,9.07999 -13.73162,11.826598 -2.64869,1.28323 -6.60568,2.78278 -8.79331,3.33232 -2.38525,0.59919 -14.4908,2.14333 -30.24,3.85732 -14.44437,1.571981 -26.84413,2.930141 -27.55503,3.018141 -1.15257,0.14268 -1.32171,-0.0255 -1.56197,-1.55283 z m 39.81451,-33.149219 c 9.52698,-1.08863 12.13666,-1.85251 14.14557,-4.14053 1.31377,-1.49629 1.45341,-1.96823 1.44389,-4.87979 -0.018,-5.48698 -1.76071,-8.02676 -6.15803,-8.9743 -1.62485,-0.35012 -21.71677,1.58571 -22.688,2.18596 -0.35611,0.22009 -0.26529,2.69263 0.30048,8.18023 0.44596,4.32565 0.88358,8.11613 0.97247,8.42329 0.10093,0.34874 0.84927,0.47945 1.99262,0.34803 1.00705,-0.11575 5.503,-0.63005 9.991,-1.14289 z m 102.96002,-64.20891 c 0.3829,-0.32571 -3.34071,-3.28435 -6.48003,-5.14882 -7.042,-4.18231 -16.36217,-5.57733 -24.4141,-3.65423 -6.48926,1.54987 -11.27099,4.25754 -16.16011,9.15072 -5.67553,5.68024 -8.60896,11.67841 -9.77908,19.99589 l -0.27831,1.97828 28.4358,-11.05884 c 15.63969,-6.08236 28.54383,-11.15071 28.67583,-11.263 z m -109.32964,17.1387 c 10.49236,-1.18039 11.94318,-1.52558 13.94842,-3.31873 1.4522,-1.2986 1.54114,-1.56881 1.54014,-4.67915 -0.002,-5.35625 -2.10805,-7.34016 -7.78353,-7.33111 -3.26236,0.005 -19.31306,1.73323 -19.70084,2.121 -0.26007,0.26007 0.62658,10.25723 1.14184,12.87458 0.31467,1.59841 -0.23916,1.58139 10.85397,0.33341 z m 186.12964,81.446899 c 0,-0.84172 -1.4869,-13.501219 -1.7125,-14.580309 -0.3004,-1.43697 -3.0876,-1.59945 -3.0876,-0.18 0,0.62754 -0.4626,0.99253 -1.5282,1.20564 -1.8294,0.36587 -2.2942,-0.18191 -2.3045,-2.71593 -0.01,-2.29287 0.5064,-2.51635 7.4328,-3.22101 2.904,-0.29544 6.036,-0.6418 6.96,-0.76968 2.2506,-0.31147 2.7248,0.11325 3.1274,2.80098 l 0.3416,2.28 h -1.9745 c -1.4351,0 -1.8961,-0.20747 -1.9745,-0.72 -0.073,-0.47448 -0.48,-0.72 -1.44,-0.72 -1.7381,0 -1.7477,0.11192 -0.7162,8.381758 1.0568,8.472671 1.0838,8.282351 -1.2038,8.500511 -1.056,0.1007 -1.92,-0.0172 -1.92,-0.26196 z m 13.6726,-1.752341 c -0.1673,-0.27062 -0.7122,-3.88862 -1.2109,-8.04 -0.4988,-4.151378 -0.9147,-7.577968 -0.9243,-7.614638 -0.01,-0.0367 -0.3954,-0.0367 -0.8574,0 -0.633,0.0502 -0.8756,-0.35847 -0.9845,-1.65824 l -0.1445,-1.7249 6.5257,-0.62987 c 3.8978,-0.37622 6.7006,-0.45479 6.9599,-0.1951 0.2389,0.23913 0.5759,1.32167 0.7491,2.40565 0.2859,1.78918 0.2107,1.99875 -0.8154,2.27344 -2.0631,0.55229 -2.8103,0.36733 -2.8103,-0.69566 0,-0.72502 -0.1768,-0.74407 -0.7593,-0.72 -1.0336,0.0427 -1.7794,0.1778 -2.6299,0.3081 -1.3867,0.21244 -0.9809,0.0218 -0.8371,2.26325 l 0.1463,2.28 3.24,-0.16268 3.24,-0.16267 v 1.684468 1.68447 l -3.0085,0.32218 -3.0085,0.32218 0.1777,1.99603 c 0.098,1.09781 0.3553,2.18498 0.5724,2.41593 0.2171,0.23096 1.383,0.27172 2.5908,0.0906 1.7397,-0.26088 2.1961,-0.52271 2.1961,-1.25991 0,-0.76569 0.3402,-0.93059 1.92,-0.93059 1.7107,0 1.92,0.12654 1.92,1.16074 0,0.63841 0.1204,1.47456 0.2676,1.85811 0.5328,1.38842 -1.0915,2.11013 -6.007,2.66908 -5.9204,0.673221 -6.1279,0.675131 -6.508,0.06 z m 15.6838,-2.45198 c -0.2323,-0.62479 -0.6783,-3.61999 -0.9911,-6.65599 -0.7879,-7.646648 -0.914,-8.159998 -2.0034,-8.159998 -0.7281,0 -0.9219,-0.34246 -0.9219,-1.62865 0,-1.83814 0.565,-2.21135 3.3479,-2.21135 1.2758,0 1.9237,0.24584 2.1411,0.81243 0.1715,0.44684 0.6643,4.01084 1.0952,7.92 l 0.7834,7.107568 c 1.8098,-0.0825 4.4439,0.5749 5.1124,-1.49135 0,-0.71619 0.3512,-0.90865 1.6582,-0.90865 1.5292,0 1.684,0.13686 1.9882,1.75836 0.5904,3.14724 -0.3019,3.63259 -7.837,4.26307 -3.8527,0.32236 -3.9611,0.30241 -4.373,-0.80544 z m 14.8874,-0.8165 c -0.3956,-0.26175 -0.8916,-2.57916 -1.3118,-6.13017 -1.1861,-10.021608 -1.1348,-9.789318 -2.1614,-9.789318 -0.7363,0 -0.9306,-0.33701 -0.9306,-1.61416 v -1.61416 l 6.12,-0.72177 c 3.4455,-0.40636 6.4591,-0.54763 6.8959,-0.32328 0.6431,0.33035 1.7252,4.1461 1.28,4.51377 -0.075,0.0617 -0.9459,0.25869 -1.9359,0.43767 -1.6271,0.29416 -1.8,0.22533 -1.8,-0.71632 0,-0.91076 -0.1886,-1.00403 -1.5,-0.74175 -0.825,0.165 -1.851,0.29987 -2.28,0.2997 -0.6382,-2.4e-4 -0.7498,0.43595 -0.6138,2.39876 l 0.1663,2.39906 2.7137,-0.29978 c 1.4926,-0.16487 2.9298,-0.32631 3.1938,-0.35876 0.264,-0.0324 0.547,0.75102 0.629,1.74102 0.1396,1.68733 0.064,1.80033 -1.2,1.80528 -0.742,0.003 -2.105,0.13018 -3.029,0.28283 l -1.68,0.27754 0.17,2.411858 0.17,2.41187 1.75,-0.28941 c 0.9625,-0.15917 2.128,-0.29178 2.59,-0.29469 0.5182,-0.003 0.84,-0.37301 0.84,-0.96528 0,-0.59179 0.3222,-0.96251 0.84,-0.96655 0.462,-0.004 1.326,-0.1368 1.92,-0.29599 1.0163,-0.27235 1.08,-0.14552 1.08,2.14967 0,2.93711 -0.3428,3.18464 -5.04,3.63974 -1.848,0.17904 -4.008,0.42632 -4.8,0.5495 -0.792,0.12319 -1.7263,0.0346 -2.0762,-0.19688 z m 17.9162,-2.90671 c -3.6508,-1.68493 -5.6509,-5.112118 -5.6692,-9.714098 -0.026,-6.45918 6.0518,-11.06692 12.6482,-9.58933 2.5193,0.56434 4.301,2.37015 4.301,4.35928 0,1.14471 -0.247,1.42934 -1.4743,1.69891 -0.8109,0.1781 -1.5129,0.24926 -1.56,0.15814 -1.3985,-2.70431 -2.8754,-3.29853 -5.7281,-2.30467 -6.6125,2.30374 -4.8255,12.450318 2.1939,12.457198 2.0086,0.002 3.3521,-0.55295 5.0216,-2.074178 l 1.0931,-0.996 1.3069,1.33037 1.3069,1.330368 -1.7879,1.566 c -3.1077,2.72204 -7.9919,3.46732 -11.6521,1.77801 z m 20.7497,-1.63135 c -8.9686,-2.880438 -9.7655,-15.699018 -1.1986,-19.278518 3.5525,-1.48431 8.6534,-0.67504 11.3457,1.8 3.7029,3.40412 3.9075,10.89729 0.4003,14.65725 -2.4349,2.610338 -7.2194,3.890118 -10.5474,2.821268 z m 5.9393,-4.307758 c 3.7305,-2.48475 4.2253,-7.32095 1.0551,-10.31367 -1.3968,-1.31861 -2.0128,-1.56 -3.9815,-1.56 -6.7817,0 -8.4936,9.53893 -2.2033,12.27772 2.1178,0.92208 3.2756,0.83088 5.1297,-0.40405 z m 9.071,1.56449 c 0,-0.86478 0.2767,-1.81214 0.615,-2.10524 0.4734,-0.41021 0.5562,-2.34327 0.36,-8.39506 -0.1638,-5.05056 -0.083,-7.91088 0.225,-7.99846 3.3704,-0.95725 3.3437,-0.97461 6.146,4.00049 1.4437,2.56306 2.8214,5.04053 3.0615,5.50549 0.3332,0.64496 0.8068,-0.43833 1.9978,-4.56917 0.8586,-2.97801 1.7191,-5.67028 1.9123,-5.98282 0.1931,-0.31255 1.2202,-0.70724 2.2824,-0.87708 l 1.9312,-0.30882 1.0767,5.88679 c 1.7237,9.42369 2.0118,10.52572 2.7519,10.52572 0.3741,0 0.6831,0.27 0.6867,0.6 0,0.33 0.1368,1.086 0.296,1.68 0.2745,1.02434 0.1532,1.08 -2.3552,1.08 -1.7118,0 -2.7281,-0.21764 -2.8814,-0.61702 -0.1302,-0.33936 -0.6237,-2.82812 -1.0967,-5.53059 -0.473,-2.70246 -0.9983,-4.7468 -1.1673,-4.54298 -0.169,0.20383 -0.8207,2.05793 -1.4484,4.12024 -1.2629,4.14994 -1.112,3.93838 -3.1135,4.36281 -1.3304,0.28211 -1.5391,0.13116 -2.7426,-1.98355 -0.7165,-1.2589 -1.8109,-3.11382 -2.4322,-4.12205 l -1.1295,-1.83313 0.2138,5.58742 c 0.1179,3.07897 0.016,5.785458 -0.2272,6.028528 -0.2426,0.24261 -1.4584,0.58054 -2.7017,0.75096 l -2.2606,0.30985 z"
       id="path1"
       sodipodi:nodetypes="ssssscssscsssscsscssscsccsscssscccsscssscccscssssssssscsscscsssssssssssssssssssscssssccssssssscssccssssssscccscscssssssccccccccsssssssssssssssscsssssscsscsscssssccssccscccscscsssssscssscssscccssssssssssssssscscscscsscssssscssccccscs" /></g></svg>
